Coordinates
version=1
nRows=11
nColumns=42
inDegrees=yes

Units are S.I. units (second, meters, Newtons, ...)
Angles are in degrees.

endheader
time	pelvis_tilt	pelvis_list	pelvis_rotation	pelvis_tx	pelvis_ty	pelvis_tz	hip_flexion_r	hip_adduction_r	hip_rotation_r	knee_angle_r	ankle_angle_r	subtalar_angle_r	mtp_angle_r	hip_flexion_l	hip_adduction_l	hip_rotation_l	knee_angle_l	ankle_angle_l	subtalar_angle_l	mtp_angle_l	lumbar_extension	lumbar_bending	lumbar_rotation	arm_flex_r	arm_add_r	arm_rot_r	elbow_flex_r	pro_sup_r	wrist_flex_r	wrist_dev_r	arm_flex_l	arm_add_l	arm_rot_l	elbow_flex_l	pro_sup_l	wrist_flex_l	wrist_dev_l	scapula_weld_r	clavicle_weld_r	scapula_weld_l	clavicle_weld_l
      1.77000000	    -10.75205358	      0.42099812	     10.06597481	      0.82143348	      0.88371695	     -0.09338951	     40.50214612	     -5.72388694	    -17.85848141	    -33.14978369	      5.74477841	      0.00000000	      0.00000000	      7.11591504	     -9.53323774	    -13.15586550	    -52.72598522	    -10.53411497	      0.00000000	      0.00000000	      0.00000000	      0.00000000	      0.00000000	      0.00000000	    -11.17090375	      0.00000000	     75.28984614	     44.97967697	      0.00000000	      0.00000000	      0.00000000	    -11.17090375	      0.00000000	     75.28984614	     44.97967697	      0.00000000	      0.00000000	      0.00000000	      0.00000000	      0.00000000	      0.00000000
      1.78000000	    -10.52466100	     -0.50921991	      9.65532271	      0.83610509	      0.88561015	     -0.09156246	     39.30634291	     -4.34768003	    -18.20879696	    -33.02857270	      6.86813068	      0.00000000	      0.00000000	      8.50216591	    -10.96624315	    -12.80244324	    -55.37440662	    -10.90512531	      0.00000000	      0.00000000	      0.00000000	      0.00000000	      0.00000000	      0.00000000	    -11.17808073	      0.00000000	     75.28878454	     44.97988309	      0.00000000	      0.00000000	      0.00000000	    -11.17808073	      0.00000000	     75.28878454	     44.97988309	      0.00000000	      0.00000000	      0.00000000	      0.00000000	      0.00000000	      0.00000000
      1.79000000	    -10.40611198	     -1.26517071	      9.31882710	      0.85043684	      0.88773008	     -0.08988936	     38.11270074	     -3.17288832	    -18.52102894	    -32.70461545	      7.86534391	      0.00000000	      0.00000000	     10.08163245	    -12.10205170	    -12.31344950	    -57.87247997	    -10.71325086	      0.00000000	      0.00000000	      0.00000000	      0.00000000	      0.00000000	      0.00000000	    -11.18434545	      0.00000000	     75.28785939	     44.98006165	      0.00000000	      0.00000000	      0.00000000	    -11.18434545	      0.00000000	     75.28785939	     44.98006165	      0.00000000	      0.00000000	      0.00000000	      0.00000000	      0.00000000	      0.00000000
      1.80000000	    -10.37267045	     -1.91223631	      9.07938028	      0.86451092	      0.89011895	     -0.08833585	     36.87636667	     -2.13283705	    -18.82952423	    -32.11502340	      8.62698893	      0.00000000	      0.00000000	     11.83665276	    -13.03969297	    -11.73041622	    -60.19991779	    -10.08904754	      0.00000000	      0.00000000	      0.00000000	      0.00000000	      0.00000000	      0.00000000	    -11.19438197	      0.00000000	     75.28638026	     44.98034499	      0.00000000	      0.00000000	      0.00000000	    -11.19438197	      0.00000000	     75.28638026	     44.98034499	      0.00000000	      0.00000000	      0.00000000	      0.00000000	      0.00000000	      0.00000000
      1.81000000	    -10.42399981	     -2.22227657	      8.85259320	      0.87825084	      0.89273247	     -0.08703872	     35.68925418	     -1.42722774	    -18.90756546	    -31.48526958	      9.41606575	      0.00000000	      0.00000000	     13.65016118	    -13.50013586	    -11.19739681	    -62.27834404	     -8.95033073	      0.00000000	      0.00000000	      0.00000000	      0.00000000	      0.00000000	      0.00000000	    -11.19887209	      0.00000000	     75.28571975	     44.98047069	      0.00000000	      0.00000000	      0.00000000	    -11.19887209	      0.00000000	     75.28571975	     44.98047069	      0.00000000	      0.00000000	      0.00000000	      0.00000000	      0.00000000	      0.00000000
      1.82000000	    -10.62534747	     -2.60867987	      8.77643503	      0.89183423	      0.89543194	     -0.08583008	     34.51956151	     -0.71487110	    -19.15609257	    -30.51533593	      9.75381855	      0.00000000	      0.00000000	     15.74835778	    -13.98439452	    -10.59608056	    -64.19307606	     -7.71403863	      0.00000000	      0.00000000	      0.00000000	      0.00000000	      0.00000000	      0.00000000	    -11.20660760	      0.00000000	     75.28458348	     44.98068578	      0.00000000	      0.00000000	      0.00000000	    -11.20660760	      0.00000000	     75.28458348	     44.98068578	      0.00000000	      0.00000000	      0.00000000	      0.00000000	      0.00000000	      0.00000000
      1.83000000	    -10.79593065	     -2.69236218	      8.64890414	      0.90522193	      0.89833142	     -0.08481145	     33.31221020	     -0.27995094	    -19.21491670	    -29.57870210	     10.15162465	      0.00000000	      0.00000000	     17.71235909	    -14.08514375	    -10.17854079	    -65.82518280	     -6.08360366	      0.00000000	      0.00000000	      0.00000000	      0.00000000	      0.00000000	      0.00000000	    -11.21141896	      0.00000000	     75.28387790	     44.98081855	      0.00000000	      0.00000000	      0.00000000	    -11.21141896	      0.00000000	     75.28387790	     44.98081855	      0.00000000	      0.00000000	      0.00000000	      0.00000000	      0.00000000	      0.00000000
      1.84000000	    -11.04690525	     -2.80295570	      8.58825771	      0.91849821	      0.90122146	     -0.08395353	     32.10459294	      0.15780107	    -19.30479444	    -28.45068193	     10.34625883	      0.00000000	      0.00000000	     19.81129133	    -14.13511405	     -9.74367466	    -67.24068407	     -4.45643413	      0.00000000	      0.00000000	      0.00000000	      0.00000000	      0.00000000	      0.00000000	    -11.21679358	      0.00000000	     75.28309071	     44.98096599	      0.00000000	      0.00000000	      0.00000000	    -11.21679358	      0.00000000	     75.28309071	     44.98096599	      0.00000000	      0.00000000	      0.00000000	      0.00000000	      0.00000000	      0.00000000
      1.85000000	    -11.19945867	     -2.53201166	      8.41810095	      0.93179700	      0.90451613	     -0.08334505	     30.72924857	      0.28769587	    -19.07671945	    -27.27263643	     10.54934474	      0.00000000	      0.00000000	     21.56242010	    -13.70902291	     -9.57680135	    -68.16865987	     -3.21992021	      0.00000000	      0.00000000	      0.00000000	      0.00000000	      0.00000000	      0.00000000	    -11.21847140	      0.00000000	     75.28284524	     44.98101181	      0.00000000	      0.00000000	      0.00000000	    -11.21847140	      0.00000000	     75.28284524	     44.98101181	      0.00000000	      0.00000000	      0.00000000	      0.00000000	      0.00000000	      0.00000000
      1.86000000	    -11.48322425	     -2.87881130	      8.40104918	      0.94468278	      0.90687185	     -0.08261667	     29.57456049	      0.91075867	    -19.38244586	    -26.03778416	     10.51025605	      0.00000000	      0.00000000	     23.84596568	    -13.92662845	     -9.09819862	    -69.28442053	     -1.26576793	      0.00000000	      0.00000000	      0.00000000	      0.00000000	      0.00000000	      0.00000000	    -11.22484209	      0.00000000	     75.28191396	     44.98118501	      0.00000000	      0.00000000	      0.00000000	    -11.22484209	      0.00000000	     75.28191396	     44.98118501	      0.00000000	      0.00000000	      0.00000000	      0.00000000	      0.00000000	      0.00000000
      1.87000000	    -11.65098805	     -2.87090461	      8.22831197	      0.95774672	      0.90951715	     -0.08211898	     28.24936078	      1.25589611	    -19.38032321	    -24.81826707	     10.52510592	      0.00000000	      0.00000000	     25.71792397	    -13.72611691	     -8.91722833	    -69.86992034	      0.23552399	      0.00000000	      0.00000000	      0.00000000	      0.00000000	      0.00000000	      0.00000000	    -11.22970976	      0.00000000	     75.28120341	     44.98131649	      0.00000000	      0.00000000	      0.00000000	    -11.22970976	      0.00000000	     75.28120341	     44.98131649	      0.00000000	      0.00000000	      0.00000000	      0.00000000	      0.00000000	      0.00000000
